<?xml version="1.0" encoding="UTF-8"?><svg id="Ebene_2" xmlns="http://www.w3.org/2000/svg" viewBox="0 0 66.34 52.44"><defs><style>.cls-1{fill:#fff;}</style></defs><g id="Ebene_1-2"><g id="Layer_2"><g id="Layer_1-2"><path class="cls-1" d="M0,3.62V48.82c0,2,1.34,3.62,2.98,3.62,.46,0,.92-.13,1.33-.38L41.5,29.46c1.47-.9,2.07-3.07,1.33-4.86-.29-.7-.75-1.27-1.33-1.62L4.31,.38C2.84-.51,1.05,.21,.32,2,.11,2.5,0,3.06,0,3.62Z"/></g></g><g id="Layer_2-2"><g id="Layer_1-2-2"><path class="cls-1" d="M23.2,3.62V48.82c0,2,1.34,3.62,2.98,3.62,.46,0,.92-.13,1.33-.38l37.19-22.6c1.47-.9,2.07-3.07,1.33-4.86-.29-.7-.75-1.27-1.33-1.62L27.51,.38c-1.47-.89-3.26-.17-4,1.62-.21,.5-.31,1.05-.32,1.62Z"/></g></g></g></svg>