<?xml version="1.0" encoding="UTF-8"?><svg id="Ebene_2" xmlns="http://www.w3.org/2000/svg" viewBox="0 0 75.03 73.85"><defs><style>.cls-1{fill:#fff;}.cls-2{fill:none;stroke:#fff;stroke-miterlimit:10;stroke-width:8px;}</style></defs><g id="Ebene_1-2"><g id="Layer_2"><g id="Layer_1-2"><path class="cls-1" d="M66.74,7.52l-11.96,11.96c-.53,.53-.53,1.39,0,1.92,.15,.15,.33,.26,.53,.33l17.94,5.98c.71,.24,1.48-.15,1.71-.86,.09-.28,.09-.58,0-.85l-5.98-17.94c-.24-.71-1-1.09-1.71-.86-.2,.07-.38,.18-.53,.33Z"/></g></g><g id="Layer_2-2"><g id="Layer_1-2-2"><path class="cls-1" d="M8.29,66.22l11.96-11.96c.53-.53,.53-1.39,0-1.92-.15-.15-.33-.26-.53-.33L1.78,46.03c-.71-.24-1.48,.15-1.71,.86-.09,.28-.09,.58,0,.85l5.98,17.94c.24,.71,1,1.09,1.71,.86,.2-.07,.38-.18,.53-.33Z"/></g></g><path class="cls-2" d="M70.32,36.93c0,18.18-14.74,32.92-32.93,32.92-9.09,0-17.32-3.68-23.27-9.64"/><path class="cls-2" d="M4.47,36.92C4.47,18.74,19.21,4,37.4,4c9.09,0,17.32,3.68,23.27,9.64"/></g></svg>