<?xml version="1.0" encoding="UTF-8"?><svg id="Ebene_2" xmlns="http://www.w3.org/2000/svg" viewBox="0 0 66.34 52.44"><defs><style>.cls-1{fill:#fff;}</style></defs><g id="Ebene_1-2"><g id="Layer_2"><g id="Layer_1-2"><path class="cls-1" d="M66.34,48.82V3.62C66.34,1.62,65,0,63.36,0c-.46,0-.92,.13-1.33,.38L24.84,22.98c-1.47,.9-2.07,3.07-1.33,4.86,.29,.7,.75,1.27,1.33,1.62l37.19,22.6c1.47,.89,3.26,.17,4-1.62,.21-.5,.31-1.05,.32-1.62Z"/></g></g><g id="Layer_2-2"><g id="Layer_1-2-2"><path class="cls-1" d="M43.14,48.82V3.62C43.14,1.62,41.81,0,40.16,0c-.46,0-.92,.13-1.33,.38L1.65,22.98c-1.47,.9-2.07,3.07-1.33,4.86,.29,.7,.75,1.27,1.33,1.62l37.19,22.6c1.47,.89,3.26,.17,4-1.62,.21-.5,.31-1.05,.32-1.62Z"/></g></g></g></svg>