<?xml version="1.0" encoding="UTF-8"?><svg id="Ebene_2" xmlns="http://www.w3.org/2000/svg" viewBox="0 0 65.33 54.22"><defs><style>.cls-1{fill:#fff;}.cls-2{fill:none;stroke:#fff;stroke-linecap:round;stroke-miterlimit:10;stroke-width:5px;}</style></defs><g id="Ebene_1-2"><g><path class="cls-1" d="M38,4.67V49.54c0,2.58-2.1,4.68-4.69,4.67-.72,0-1.44-.17-2.08-.49L11,36.1h0V18.1L31.23,.49c2.31-1.15,5.12-.22,6.28,2.1,.32,.65,.49,1.36,.49,2.08Z"/><path class="cls-1" d="M11,18.1v18H5.19C2.32,36.1,0,33.77,0,30.9v-7.61c0-2.86,2.33-5.18,5.19-5.19h5.81Z"/><path class="cls-2" d="M47,14.05c6.5,7.47,6.5,18.59,0,26.06"/><path class="cls-2" d="M56.29,7.44c8.21,10.16,9.21,28.16,0,40"/></g></g></svg>